    <svg
      xmlns="http://www.w3.org/2000/svg"
      width="13.101"
      height="12.301"
      viewBox="0 0 13.101 12.301"
    >
      <defs>
        <style>
          .a {
            fill: #fff;
            stroke: #fff;
            stroke-width: 0.3px;
          }
        </style>
      </defs>
      <g transform="translate(0.15 -15.859)">
        <g transform="translate(0 16.01)">
          <g transform="translate(0 0)">
            <path
              class="a"
              d="M7.055,16.1a.4.4,0,0,0-.329-.085l-6.4,1.2A.4.4,0,0,0,0,17.609v8.8a.4.4,0,0,0,.326.393l6.4,1.2a.383.383,0,0,0,.074.007.4.4,0,0,0,.4-.4v-11.2A.4.4,0,0,0,7.055,16.1ZM6.4,27.127.8,26.078V17.941l5.6-1.05Z"
              transform="translate(0 -16.01)"
            />
          </g>
        </g>
        <g transform="translate(6.4 17.609)">
          <path
            class="a"
            d="M262,79.99h-5.6a.4.4,0,1,0,0,.8h5.2v7.2h-5.2a.4.4,0,1,0,0,.8H262a.4.4,0,0,0,.4-.4v-8A.4.4,0,0,0,262,79.99Z"
            transform="translate(-256 -79.99)"
          />
        </g>
        <g transform="translate(6.4 19.209)">
          <path
            class="a"
            d="M258,143.99h-1.6a.4.4,0,1,0,0,.8H258a.4.4,0,0,0,0-.8Z"
            transform="translate(-256 -143.99)"
          />
        </g>
        <g transform="translate(6.4 20.81)">
          <path
            class="a"
            d="M258,207.99h-1.6a.4.4,0,1,0,0,.8H258a.4.4,0,0,0,0-.8Z"
            transform="translate(-256 -207.99)"
          />
        </g>
        <g transform="translate(6.4 22.41)">
          <g transform="translate(0 0)">
            <path
              class="a"
              d="M258,271.99h-1.6a.4.4,0,0,0,0,.8H258a.4.4,0,0,0,0-.8Z"
              transform="translate(-256 -271.99)"
            />
          </g>
        </g>
        <g transform="translate(6.4 24.01)">
          <path
            class="a"
            d="M258,335.99h-1.6a.4.4,0,0,0,0,.8H258a.4.4,0,0,0,0-.8Z"
            transform="translate(-256 -335.99)"
          />
        </g>
        <g transform="translate(9.6 19.209)">
          <path
            class="a"
            d="M385.2,143.99h-.8a.4.4,0,0,0,0,.8h.8a.4.4,0,1,0,0-.8Z"
            transform="translate(-384 -143.99)"
          />
        </g>
        <g transform="translate(9.6 20.81)">
          <path
            class="a"
            d="M385.2,207.99h-.8a.4.4,0,0,0,0,.8h.8a.4.4,0,1,0,0-.8Z"
            transform="translate(-384 -207.99)"
          />
        </g>
        <g transform="translate(9.6 22.41)">
          <g transform="translate(0 0)">
            <path
              class="a"
              d="M385.2,271.99h-.8a.4.4,0,0,0,0,.8h.8a.4.4,0,0,0,0-.8Z"
              transform="translate(-384 -271.99)"
            />
          </g>
        </g>
        <g transform="translate(9.6 24.01)">
          <path
            class="a"
            d="M385.2,335.99h-.8a.4.4,0,0,0,0,.8h.8a.4.4,0,0,0,0-.8Z"
            transform="translate(-384 -335.99)"
          />
        </g>
        <g transform="translate(2 20.009)">
          <path
            class="a"
            d="M83.506,179.321l-2.8-3.2a.4.4,0,0,0-.6.526l2.8,3.2a.4.4,0,0,0,.6-.526Z"
            transform="translate(-80.004 -175.984)"
          />
        </g>
        <g transform="translate(2 19.61)">
          <path
            class="a"
            d="M83.445,160.077a.4.4,0,0,0-.562.07l-2.8,3.6a.4.4,0,0,0,.631.492l2.8-3.6A.4.4,0,0,0,83.445,160.077Z"
            transform="translate(-79.999 -159.992)"
          />
        </g>
      </g>
    </svg>