<svg xmlns="http://www.w3.org/2000/svg" width="16" height="16.001" viewBox="0 0 16 16.001">
  <g id="global" transform="translate(-0.016 0.002)">
    <g id="Group_4883" data-name="Group 4883" transform="translate(0.016 -0.002)">
      <path id="Path_13110" data-name="Path 13110" d="M14.538,3.381a.134.134,0,0,0,0-.015c-.02-.029-.045-.053-.065-.081Q14.247,2.979,14,2.7c-.046-.051-.091-.1-.138-.153q-.258-.276-.541-.526c-.035-.031-.067-.063-.1-.093A8.012,8.012,0,0,0,11.7.9L11.631.867a7.95,7.95,0,0,0-.743-.331c-.057-.021-.109-.04-.163-.057q-.338-.122-.686-.213C9.97.248,9.9.229,9.831.213,9.6.159,9.374.119,9.14.086,9.069.075,9,.062,8.928.053a7.515,7.515,0,0,0-1.813,0C7.044.062,6.974.075,6.9.086c-.234.033-.465.074-.691.127C6.142.229,6.073.248,6,.266q-.35.091-.686.213L5.155.536a7.945,7.945,0,0,0-.743.331L4.345.9A8.014,8.014,0,0,0,2.823,1.924c-.035.03-.067.062-.1.093a7.435,7.435,0,0,0-.541.526c-.047.05-.093.1-.138.153q-.251.282-.474.588c-.021.028-.045.053-.065.081L1.5,3.381a7.951,7.951,0,0,0,0,9.236l.007.015c.02.029.045.053.065.081q.224.305.474.588c.046.051.091.1.138.153q.258.276.541.526c.035.031.067.063.1.093A8.012,8.012,0,0,0,4.34,15.1l.067.033a7.949,7.949,0,0,0,.743.331c.057.021.109.04.163.057q.338.122.686.213c.069.018.137.037.207.053.229.053.457.094.691.127.071.01.141.024.212.033a7.515,7.515,0,0,0,1.813,0c.071-.009.141-.022.212-.033.234-.033.465-.074.691-.127.07-.016.138-.035.207-.053q.351-.091.686-.213l.163-.057a7.945,7.945,0,0,0,.743-.331l.067-.033a8.013,8.013,0,0,0,1.517-1.024c.035-.03.067-.062.1-.093a7.278,7.278,0,0,0,.541-.526c.047-.05.093-.1.138-.153q.251-.282.474-.588c.021-.028.045-.053.065-.081l.007-.015A7.951,7.951,0,0,0,14.538,3.381Zm-.652,1.082a6.8,6.8,0,0,1,.964,2.965H11.426a10.667,10.667,0,0,0-.32-2.017A10.272,10.272,0,0,0,13.885,4.462ZM9.474,1.3c.032.007.063.018.095.025a6.152,6.152,0,0,1,.606.171l.09.033q.295.1.58.229l.1.048q.273.13.533.281l.114.069q.247.151.48.323c.04.029.08.057.119.089a5.215,5.215,0,0,1,.438.368c.037.033.074.066.11.1.146.139.286.286.421.438.017.02.035.038.053.057a9.589,9.589,0,0,1-2.438.783A14.535,14.535,0,0,0,9.235,1.258C9.314,1.272,9.4,1.28,9.474,1.3Zm-3.72,6.13A9.538,9.538,0,0,1,6.068,5.6a16.38,16.38,0,0,0,1.952.114A16.417,16.417,0,0,0,9.973,5.6a9.52,9.52,0,0,1,.313,1.832Zm4.532,1.143A9.538,9.538,0,0,1,9.971,10.4a16.73,16.73,0,0,0-3.9,0,9.523,9.523,0,0,1-.313-1.829ZM8.019,1.512A13.806,13.806,0,0,1,9.613,4.485a15.13,15.13,0,0,1-1.593.085,15.244,15.244,0,0,1-1.591-.085A13.915,13.915,0,0,1,8.019,1.512ZM2.88,3.47c.134-.152.274-.3.421-.438.036-.034.074-.067.11-.1q.212-.193.438-.368c.039-.03.079-.057.119-.089q.233-.171.48-.323l.114-.069q.26-.152.533-.281l.1-.048q.285-.129.58-.229c.03-.011.057-.023.09-.033.2-.066.4-.121.606-.171.032-.007.063-.018.1-.025.078-.017.159-.025.239-.039A14.536,14.536,0,0,0,5.266,4.312a9.588,9.588,0,0,1-2.438-.783C2.845,3.509,2.863,3.49,2.88,3.47Zm-.727.992a10.27,10.27,0,0,0,2.779.948,10.667,10.667,0,0,0-.32,2.017H1.189A6.8,6.8,0,0,1,2.153,4.462Zm0,7.073a6.8,6.8,0,0,1-.964-2.965H4.613a10.667,10.667,0,0,0,.32,2.017A10.27,10.27,0,0,0,2.153,11.536ZM6.565,14.7c-.032-.007-.063-.018-.095-.025a6.152,6.152,0,0,1-.606-.171l-.09-.033q-.295-.1-.58-.229l-.1-.048q-.273-.13-.533-.281l-.114-.069q-.247-.151-.48-.323c-.04-.029-.08-.057-.119-.089a5.215,5.215,0,0,1-.438-.368c-.037-.033-.074-.066-.11-.1-.146-.139-.286-.286-.421-.438-.017-.02-.035-.038-.053-.057a9.589,9.589,0,0,1,2.438-.783A14.535,14.535,0,0,0,6.8,14.74C6.725,14.726,6.643,14.718,6.565,14.7Zm1.454-.215a13.806,13.806,0,0,1-1.593-2.973,14.881,14.881,0,0,1,3.185,0h0A13.912,13.912,0,0,1,8.019,14.486Zm5.139-1.958c-.134.152-.274.3-.421.438-.036.034-.074.067-.11.1q-.212.193-.438.368l-.119.089q-.233.171-.48.323l-.114.069q-.26.151-.533.281l-.1.048q-.285.129-.58.229c-.03.011-.057.023-.09.033-.2.066-.4.121-.606.171-.032.007-.063.018-.1.025-.078.017-.159.025-.239.039a14.534,14.534,0,0,0,1.539-3.054,9.588,9.588,0,0,1,2.438.783C13.194,12.489,13.176,12.507,13.158,12.527Zm.727-.992a10.27,10.27,0,0,0-2.779-.948,10.667,10.667,0,0,0,.32-2.017H14.85A6.8,6.8,0,0,1,13.885,11.536Z" transform="translate(-0.016 0.002)" fill="#656565"/>
    </g>
  </g>
</svg>
