<svg xmlns="http://www.w3.org/2000/svg" xmlns:xlink="http://www.w3.org/1999/xlink" width="183.372" height="50.471" viewBox="0 0 183.372 50.471">
  <defs>
    <linearGradient id="linear-gradient" x1="0.5" y1="0.315" x2="0.5" y2="0.738" gradientUnits="objectBoundingBox">
      <stop offset="0" stop-color="#934b8d"/>
      <stop offset="1" stop-color="#6e468d"/>
    </linearGradient>
    <linearGradient id="linear-gradient-2" y1="0.5" x2="1" y2="0.5" gradientUnits="objectBoundingBox">
      <stop offset="0" stop-color="#fcc10b"/>
      <stop offset="1" stop-color="#ef1d2a"/>
    </linearGradient>
    <linearGradient id="linear-gradient-3" y1="0.5" x2="1" y2="0.5" gradientUnits="objectBoundingBox">
      <stop offset="0" stop-color="#8b3b82"/>
      <stop offset="0.967" stop-color="#f20591"/>
      <stop offset="1" stop-color="#ef1d2a"/>
    </linearGradient>
    <linearGradient id="linear-gradient-4" x1="0.5" y1="0.968" x2="0.5" y2="0.407" gradientUnits="objectBoundingBox">
      <stop offset="0" stop-color="#00579f"/>
      <stop offset="1" stop-color="#47bbff"/>
    </linearGradient>
    <linearGradient id="linear-gradient-5" x1="0.282" y1="0.91" x2="0.912" y2="0.039" gradientUnits="objectBoundingBox">
      <stop offset="0" stop-color="#004c32"/>
      <stop offset="1" stop-color="#6fbe49"/>
    </linearGradient>
  </defs>
  <g id="Group_5065" data-name="Group 5065" transform="translate(-627.519 -973)">
    <g id="Group_4754" data-name="Group 4754" transform="translate(627.519 973)">
      <path id="Path_13058" data-name="Path 13058" d="M637.311,1024.161s-5.345-1.425-3.92-8.2c1.425-8.552,2.494-9.977-3.563-14.966C628.047,1003.138,623.058,1020.6,637.311,1024.161Z" transform="translate(-627.519 -991.023)" fill="url(#linear-gradient)"/>
      <path id="Path_13059" data-name="Path 13059" d="M649.553,1009.506c-.713-4.632.713-8.552,2.851-10.69,8.2-7.839,9.977-7.839,8.552-17.816C654.542,987.414,641.714,1000.242,649.553,1009.506Z" transform="translate(-640.117 -978.149)" fill="url(#linear-gradient-2)"/>
      <path id="Path_13060" data-name="Path 13060" d="M662.569,1026.357s-11.759-2.851-5.7-15.679c5.345-8.552,13.184-11.046,17.1-15.678.713,3.207.713,11.759-6.058,14.966C662.569,1012.1,655.086,1019.586,662.569,1026.357Z" transform="translate(-645.294 -987.161)" fill="url(#linear-gradient-3)"/>
      <path id="Path_13061" data-name="Path 13061" d="M672,1059.774c4.276-8.908,21.023-2.851,6.057,2.138C684.471,1060.13,679.483,1052.291,672,1059.774Z" transform="translate(-656.15 -1025.923)" fill="#feba0f"/>
      <path id="Path_13062" data-name="Path 13062" d="M703.954,973s8.2,42.4-19.954,37.058c8.552-1.425,11.4-5.7,11.4-12.828C694.69,986.54,689.345,984.4,703.954,973Z" transform="translate(-663.874 -973)" fill="url(#linear-gradient-4)"/>
      <path id="Path_13063" data-name="Path 13063" d="M723.564,1030.882c-22.092-1.426-13.54,21.023-34.564,17.46C709.667,1054.4,716.793,1040.859,723.564,1030.882Z" transform="translate(-667.093 -1010.215)" fill="url(#linear-gradient-5)"/>
    </g>
    <text id="Sàn_du_lịch" data-name="Sàn du lịch" transform="translate(689.891 1007.35)" fill="#47bbff" font-size="22" font-family="SFProText-Bold, SF Pro Text" font-weight="700"><tspan x="0" y="0">Sàn du lịch</tspan></text>
    <text id="Thành_Phố_Móng_Cái" data-name="Thành Phố Móng Cái" transform="translate(810.891 1021.471)" fill="#f3f3f3" font-size="8" font-family="SVN-BlendaScript, SVN-Blenda Script" letter-spacing="0.144em"><tspan x="-90.176" y="0">Thành Phố Móng Cái</tspan></text>
  </g>
</svg>
