<svg xmlns="http://www.w3.org/2000/svg" width="44" height="44" viewBox="0 0 44 44">
  <g id="Group_4426" data-name="Group 4426" transform="translate(-454 -109)">
    <circle id="Ellipse_77" data-name="Ellipse 77" cx="22" cy="22" r="22" transform="translate(454 109)" fill="#ecf8ff"/>
    <g id="money-tag" transform="translate(466 121)">
      <path id="Path_12970" data-name="Path 12970" d="M7.593,3.75h6.68L15.715,2.6A1.441,1.441,0,0,0,16.182.976,1.439,1.439,0,0,0,14.808,0H7.058A1.44,1.44,0,0,0,5.685.976,1.441,1.441,0,0,0,6.151,2.6Z" transform="translate(-0.433 0)" fill="#47bbff"/>
      <path id="Path_12971" data-name="Path 12971" d="M13.954,6H7.046A14.476,14.476,0,0,0,3,15.375C3,18.174,4.482,21,7.792,21h5.625C16.244,21,18,18.844,18,15.375A14.476,14.476,0,0,0,13.954,6Zm-3.771,6.875h.633a1.769,1.769,0,0,1,.308,3.51v.656a.625.625,0,0,1-1.25,0v-.624H9.042a.625.625,0,0,1,0-1.25h1.775a.521.521,0,0,0,0-1.042h-.633a1.769,1.769,0,0,1-.308-3.51V9.958a.625.625,0,1,1,1.25,0v.625h.833a.625.625,0,0,1,0,1.25H10.183a.521.521,0,0,0,0,1.042Z" transform="translate(0 -1)" fill="#47bbff"/>
    </g>
  </g>
</svg>
