<svg xmlns="http://www.w3.org/2000/svg" width="44" height="44" viewBox="0 0 44 44">
  <g id="Group_5053" data-name="Group 5053" transform="translate(39 -207)">
    <g id="Group_4431" data-name="Group 4431" transform="translate(-493 98)">
      <circle id="Ellipse_77" data-name="Ellipse 77" cx="22" cy="22" r="22" transform="translate(454 109)" fill="#fff7ee"/>
    </g>
    <g id="shop" transform="translate(-43.867 219)">
      <g id="Group_4848" data-name="Group 4848" transform="translate(18.152)">
        <g id="Group_4847" data-name="Group 4847">
          <path id="Path_13103" data-name="Path 13103" d="M40.306,0H27.96L25.418,3.977H42.847Z" transform="translate(-25.418)" fill="#f5972d"/>
        </g>
      </g>
      <g id="Group_4850" data-name="Group 4850" transform="translate(17.867 5.239)">
        <g id="Group_4849" data-name="Group 4849">
          <path id="Path_13104" data-name="Path 13104" d="M17.867,138.617v1.4a2.722,2.722,0,0,0,4.816,1.741,2.72,2.72,0,0,0,4.185,0,2.72,2.72,0,0,0,4.185,0,2.722,2.722,0,0,0,4.815-1.741v-1.4Z" transform="translate(-17.867 -138.617)" fill="#f5972d"/>
        </g>
      </g>
      <g id="Group_4852" data-name="Group 4852" transform="translate(19.257 10.035)">
        <g id="Group_4851" data-name="Group 4851">
          <path id="Path_13105" data-name="Path 13105" d="M68.544,266.107a3.972,3.972,0,0,1-2.092-.594,3.984,3.984,0,0,1-4.184,0,3.984,3.984,0,0,1-4.185,0,3.985,3.985,0,0,1-3.425.364v8.952h7.936v-7.151h4.96v7.151h2.408v-8.983A3.967,3.967,0,0,1,68.544,266.107Zm-8.114,4.936H57.066v-3.365h3.365Z" transform="translate(-54.658 -265.513)" fill="#f5972d"/>
        </g>
      </g>
    </g>
  </g>
</svg>
