<svg xmlns="http://www.w3.org/2000/svg" xmlns:xlink="http://www.w3.org/1999/xlink" width="56" height="56" viewBox="0 0 56 56">
  <defs>
    <linearGradient id="linear-gradient" x1="0.395" y1="0.156" x2="1.126" y2="-0.576" gradientUnits="objectBoundingBox">
      <stop offset="0" stop-color="#a7f3ce"/>
      <stop offset="1" stop-color="#61db99"/>
    </linearGradient>
  </defs>
  <g id="Group_5346" data-name="Group 5346" transform="translate(-539 -431)">
    <rect id="Rectangle_730" data-name="Rectangle 730" width="56" height="56" rx="16" transform="translate(539 431)" fill="#ecf8ff"/>
    <g id="chat" transform="translate(552 435.116)">
      <path id="Path_13159" data-name="Path 13159" d="M183.459,164.114A9.621,9.621,0,0,1,193,175.805a17.436,17.436,0,0,0-.434,3.754V182a.678.678,0,0,1-.678.678h-2.443a17.434,17.434,0,0,0-3.754.434,9.614,9.614,0,1,1-2.229-19Z" transform="translate(-164.098 -145.455)" fill="url(#linear-gradient)"/>
      <path id="Path_13160" data-name="Path 13160" d="M183.459,164.114A9.621,9.621,0,0,1,193,175.805a17.436,17.436,0,0,0-.434,3.754V182a.678.678,0,0,1-.678.678h-2.443a17.434,17.434,0,0,0-3.754.434,9.614,9.614,0,1,1-2.229-19Z" transform="translate(-164.098 -145.455)" fill="#77cdff"/>
      <path id="Path_13161" data-name="Path 13161" d="M11.894,9.886A11.72,11.72,0,0,0,.274,24.129,21.242,21.242,0,0,1,.8,28.7v2.976a.826.826,0,0,0,.826.826H4.605a21.242,21.242,0,0,1,4.573.529A11.713,11.713,0,1,0,11.894,9.886Z" transform="translate(0)" fill="#47bbff"/>
      <circle id="Ellipse_142" data-name="Ellipse 142" cx="1.814" cy="1.814" r="1.814" transform="translate(4.385 20.396)" fill="#fff"/>
      <circle id="Ellipse_143" data-name="Ellipse 143" cx="1.814" cy="1.814" r="1.814" transform="translate(9.516 20.396)" fill="#fff"/>
      <circle id="Ellipse_144" data-name="Ellipse 144" cx="1.814" cy="1.814" r="1.814" transform="translate(14.646 20.396)" fill="#fff"/>
    </g>
  </g>
</svg>
