<svg xmlns="http://www.w3.org/2000/svg" width="56" height="56" viewBox="0 0 56 56">
  <g id="Group_5223" data-name="Group 5223" transform="translate(-539 -431)">
    <rect id="Rectangle_730" data-name="Rectangle 730" width="56" height="56" rx="16" transform="translate(539 431)" fill="#e8f9ee"/>
    <g id="_02-shop" data-name="02-shop" transform="translate(553 445)">
      <g id="Glyph" transform="translate(0 0)">
        <path id="Path_13164" data-name="Path 13164" d="M28,32H0v1.167A2.333,2.333,0,0,0,2.333,35.5h3.5a2.333,2.333,0,0,0,2.333-2.333A2.333,2.333,0,0,0,10.5,35.5h7a2.333,2.333,0,0,0,2.333-2.333A2.333,2.333,0,0,0,22.167,35.5h3.5A2.333,2.333,0,0,0,28,33.167V32Z" transform="translate(0 -22.667)" fill="#17e555"/>
        <path id="Path_13165" data-name="Path 13165" d="M74.236,8.167,72.144.846A1.167,1.167,0,0,0,71.023,0H65.679l1.633,8.167Z" transform="translate(-46.523 0)" fill="#17e555"/>
        <path id="Path_13166" data-name="Path 13166" d="M9.54,0H4.2A1.167,1.167,0,0,0,3.075.846L.983,8.167H7.907Z" transform="translate(-0.696 0)" fill="#17e555"/>
        <path id="Path_13167" data-name="Path 13167" d="M40.066,0H34.512L32.879,8.167H41.7Z" transform="translate(-23.289 0)" fill="#17e555"/>
        <path id="Path_13168" data-name="Path 13168" d="M25,45.83a3.486,3.486,0,0,1-2.333-.893,3.486,3.486,0,0,1-2.333.893h-7A3.486,3.486,0,0,1,11,44.937a3.486,3.486,0,0,1-2.333.893h-3.5A3.477,3.477,0,0,1,4,45.626V58.664A1.167,1.167,0,0,0,5.167,59.83H7.5V49.33a1.167,1.167,0,0,1,1.167-1.167H14.5a1.167,1.167,0,0,1,1.167,1.167v10.5H28.5a1.167,1.167,0,0,0,1.167-1.167V45.626a3.477,3.477,0,0,1-1.167.2Zm1.167,7A1.167,1.167,0,0,1,25,54H19.167A1.167,1.167,0,0,1,18,52.83v-3.5a1.167,1.167,0,0,1,1.167-1.167H25a1.167,1.167,0,0,1,1.167,1.167Z" transform="translate(-2.833 -31.83)" fill="#17e555"/>
      </g>
    </g>
  </g>
</svg>
