<svg xmlns="http://www.w3.org/2000/svg" width="56" height="56" viewBox="0 0 56 56">
  <g id="Group_5346" data-name="Group 5346" transform="translate(-4041 -1391)">
    <g id="Group_5223" data-name="Group 5223" transform="translate(3502 960)">
      <rect id="Rectangle_730" data-name="Rectangle 730" width="56" height="56" rx="16" transform="translate(539 431)" fill="#ecf8ff"/>
      <g id="money-tag" transform="translate(556.5 445)">
        <path id="Path_12970" data-name="Path 12970" d="M8.391,5.25h9.352l2.018-1.615a2.017,2.017,0,0,0,.653-2.269A2.014,2.014,0,0,0,18.492,0H7.642A2.016,2.016,0,0,0,5.719,1.366a2.017,2.017,0,0,0,.652,2.268Z" transform="translate(-2.567 0)" fill="#47bbff"/>
        <path id="Path_12971" data-name="Path 12971" d="M18.336,6H8.664A20.266,20.266,0,0,0,3,19.125C3,23.044,5.074,27,9.708,27h7.875C21.542,27,24,23.982,24,19.125A20.266,20.266,0,0,0,18.336,6Zm-5.279,9.625h.887a2.476,2.476,0,0,1,.432,4.914v.918a.875.875,0,0,1-1.75,0v-.874H11.458a.875.875,0,0,1,0-1.75h2.485a.729.729,0,0,0,0-1.458h-.887a2.476,2.476,0,0,1-.432-4.914v-.919a.875.875,0,1,1,1.75,0v.875h1.167a.875.875,0,0,1,0,1.75H13.057a.729.729,0,0,0,0,1.458Z" transform="translate(-3 1)" fill="#47bbff"/>
      </g>
    </g>
  </g>
</svg>
